<svg aria-hidden="true" style="position: absolute; width: 0; height: 0; overflow: hidden;" version="1.1" xmlns="http://www.w3.org/2000/svg" xmlns:xlink="http://www.w3.org/1999/xlink">
<defs>
<symbol id="icon-Header_Logo_Text" viewBox="0 0 182 32">
<path fill="#eff0eb" style="fill: var(--color1, #eff0eb)" d="M26.867 27.717c-1.949 1.011-4.248 1.512-6.905 1.512-4.218 0-7.651-1.292-10.3-3.875s-3.966-5.973-3.966-10.159c0-3.921 1.15-6.953 3.456-9.088s5.58-3.207 9.813-3.207c3.182 0 5.763 0.562 7.735 1.695 1.972 1.125 3.129 2.698 3.472 4.719l1.865-0.251c-0.167-1.163-0.297-2.272-0.381-3.328s-0.129-2.074-0.129-3.055v-0.714c-2.078-0.532-4.081-0.935-6.014-1.201s-3.768-0.403-5.497-0.403c-5.854 0-10.628 1.451-14.32 4.362s-5.542 6.672-5.542 11.292c0 4.62 1.751 8.48 5.245 11.36s8.070 4.316 13.719 4.316c1.926 0 3.837-0.175 5.74-0.524s3.776-0.866 5.619-1.558c0.343-0.95 0.731-1.9 1.172-2.85s0.936-1.877 1.477-2.781l-1.713-0.691c-1.089 1.945-2.611 3.427-4.553 4.43h0.008z"></path>
<path fill="#eff0eb" style="fill: var(--color1, #eff0eb)" d="M68.381 4.055c-1.652-1.277-3.494-2.219-5.527-2.827s-4.347-0.912-6.928-0.912c-2.33 0-4.583 0.357-6.76 1.071s-4.134 1.748-5.87 3.085c-1.926 1.482-3.388 3.214-4.4 5.182s-1.515 4.058-1.515 6.269c0 2.044 0.419 3.989 1.264 5.843 0.845 1.846 2.063 3.518 3.662 5 1.751 1.626 3.776 2.85 6.060 3.678 2.292 0.828 4.796 1.239 7.514 1.239 2.177 0 4.355-0.342 6.524-1.018s4.073-1.619 5.702-2.827c2.040-1.497 3.616-3.283 4.72-5.357s1.659-4.271 1.659-6.596c0-2.325-0.525-4.438-1.568-6.474-1.043-2.029-2.558-3.815-4.53-5.357h-0.008zM65.435 25.856c-2.269 2.302-5.261 3.457-8.968 3.457s-7.050-1.337-9.608-4.012c-2.558-2.675-3.845-6.102-3.845-10.274 0-3.754 1.127-6.755 3.38-8.989 2.254-2.242 5.245-3.359 8.976-3.359s7.095 1.307 9.646 3.921 3.829 5.957 3.829 10.030c0 3.853-1.134 6.93-3.411 9.233v-0.008z"></path>
<path fill="#eff0eb" style="fill: var(--color1, #eff0eb)" d="M147.436 29.077c-0.495-0.311-1.081-1.125-1.759-2.462-1.142-2.31-2.703-5.767-4.682-10.365s-4.081-9.681-6.289-15.243h-4.393c-2.687 5.904-5.245 11.315-7.666 16.246-2.429 4.924-4.111 8.214-5.071 9.848-0.525 0.866-1.142 1.489-1.85 1.862s-1.667 0.57-2.87 0.6c-2.109 0-5.123-1.672-8.42-5.821-0.342-0.418-0.593-0.745-0.769-0.965l-4.774-5.95c2.231-0.935 3.898-2.067 5.017-3.397 1.112-1.322 1.675-2.834 1.675-4.529 0-2.28-1.112-4.179-3.343-5.691s-5.085-2.272-8.579-2.272c-0.563 0-1.69 0.030-3.38 0.091-1.698 0.061-3.114 0.091-4.248 0.091-1.058 0-2.139-0.015-3.258-0.046s-2.238-0.076-3.38-0.144v1.474h0.206c1.393 0 2.367 0.228 2.908 0.692 0.548 0.464 0.815 1.299 0.815 2.5 0 1.36 0 2.622-0.015 3.784-0.008 1.163-0.023 2.363-0.038 3.594l-0.099 5.737c-0.015 0.745-0.038 1.77-0.053 3.085-0.038 5.236-1.181 7.857-3.449 7.857-0.221 0-0.388 0-0.495-0.008-0.114 0-0.229-0.015-0.343-0.030v1.368c1.447-0.053 2.741-0.099 3.883-0.129s2.025-0.046 2.657-0.046c1.172 0 2.36 0.015 3.548 0.046s2.39 0.068 3.601 0.129v-1.383c0 0-0.045 0-0.091-0.023-0.046-0.015-0.099-0.023-0.168-0.023-0.053 0-0.122 0-0.205 0.023-0.084 0.015-0.152 0.023-0.206 0.023-1.568 0-2.611-0.274-3.137-0.828s-0.792-1.877-0.792-3.982v-6.451h1.53c0.883 0 1.69-0.015 2.429-0.046 0.731-0.030 1.423-0.068 2.071-0.129 1.736 2.044 3.456 4.225 5.169 6.535s2.65 3.556 2.825 3.739c1.020 1.147 2.055 1.922 3.098 2.325s7.583 0.236 7.826 0.22c1.187-0.053 2.299-0.099 3.32-0.129s1.873-0.046 2.55-0.046c0.852 0 1.819 0.015 2.9 0.046s2.239 0.068 3.487 0.129v-1.451h-0.685c-1.142 0-1.934-0.137-2.376-0.41s-0.662-0.752-0.662-1.444c0-0.494 0.221-1.315 0.662-2.462s1.264-2.986 2.474-5.494c1.104-0.030 2.17-0.046 3.205-0.053 1.028 0 2.125-0.008 3.281-0.008 0.579 0 1.888 0.023 3.928 0.061 1.127 0.015 2.010 0.023 2.657 0.023l2.505 6.444c0.152 0.38 0.266 0.707 0.335 0.98s0.099 0.524 0.099 0.745c0 0.615-0.221 1.041-0.662 1.277-0.442 0.228-1.272 0.349-2.474 0.349h-0.487v1.451c1.279-0.053 2.481-0.099 3.624-0.129s2.185-0.046 3.137-0.046c0.746 0 1.674 0.015 2.771 0.046s2.307 0.068 3.639 0.129v-1.451h-0.51c-0.921 0-1.622-0.152-2.116-0.463h-0.038zM95.773 16.22c-0.715 0.053-1.378 0.091-1.994 0.114-0.609 0.023-1.158 0.030-1.637 0.030-0.563 0-1.203-0.015-1.926-0.046s-1.492-0.076-2.307-0.144c0-3.108 0.008-5.585 0.023-7.416s0.054-3.625 0.099-5.357c0.648-0.099 1.302-0.175 1.965-0.22s1.347-0.076 2.040-0.076c2.589 0 4.644 0.585 6.174 1.763s2.299 2.736 2.299 4.688c0 1.482-0.381 2.766-1.149 3.837s-1.965 2.014-3.601 2.827h0.015zM135.567 17.543c-2.231 0.046-3.769 0.061-4.621 0.061-0.701 0-2.010-0.023-3.928-0.061-0.609-0.015-1.081-0.023-1.401-0.023l5.847-12.561 5.23 12.561c-0.259 0-0.632 0-1.126 0.023z"></path>
<path fill="#eff0eb" style="fill: var(--color1, #eff0eb)" d="M179.723 23.47c-0.784 1.991-1.835 3.328-3.152 4.020s-4.256 1.041-8.816 1.041c-0.769 0-1.576-0.008-2.436-0.030s-1.766-0.053-2.718-0.091l-0.076-15.387v-4.179c0-2.743 0.236-4.498 0.715-5.258s1.386-1.147 2.733-1.147h0.792v-1.474c-1.058 0.068-2.116 0.122-3.174 0.16-1.066 0.038-2.147 0.053-3.258 0.053-0.579 0-1.34-0.015-2.284-0.053s-2.33-0.091-4.15-0.182v1.489h0.206c1.446 0 2.421 0.388 2.923 1.163s0.754 2.454 0.754 5.030c0 0.38-0.008 1.049-0.023 2.014s-0.023 1.755-0.023 2.371l-0.054 5.714c-0.015 0.684-0.022 1.634-0.022 2.857-0.015 5.372-1.173 8.070-3.472 8.085-0.221 0-0.388 0-0.495-0.008-0.114 0-0.228-0.015-0.343-0.030v1.368c2.451-0.068 4.576-0.122 6.38-0.16s3.434-0.053 4.903-0.053c2.079 0 4.301 0.015 6.677 0.053s4.971 0.091 7.795 0.16c0.305-1.178 0.662-2.348 1.073-3.511s0.876-2.348 1.401-3.549l-1.834-0.463h-0.023z"></path>
</symbol>
<symbol id="icon-Download_Arrow" viewBox="0 0 179 32">
<path fill="#e27979" style="fill: var(--color2, #e27979)" d="M1.453 24.216v-14.945h4.836c0.118 0 0.36 0.003 0.726 0.010s0.72 0.031 1.059 0.073c1.204 0.145 2.224 0.564 3.062 1.256s1.474 1.571 1.91 2.636c0.436 1.066 0.654 2.231 0.654 3.497s-0.218 2.432-0.654 3.497c-0.436 1.066-1.072 1.944-1.91 2.636s-1.858 1.11-3.062 1.256c-0.339 0.041-0.692 0.066-1.059 0.073s-0.609 0.010-0.726 0.010h-4.836zM4.317 21.559h1.972c0.187 0 0.439-0.003 0.758-0.010 0.318-0.014 0.605-0.045 0.861-0.093 0.65-0.131 1.18-0.436 1.588-0.913 0.415-0.477 0.72-1.052 0.913-1.723 0.201-0.671 0.301-1.363 0.301-2.076 0-0.747-0.104-1.456-0.311-2.128-0.201-0.671-0.509-1.239-0.924-1.702s-0.938-0.758-1.567-0.882c-0.256-0.055-0.543-0.086-0.861-0.093s-0.571-0.010-0.758-0.010h-1.972v9.631zM22.603 24.528c-1.494 0-2.785-0.325-3.871-0.976-1.079-0.65-1.913-1.56-2.501-2.73-0.581-1.169-0.872-2.529-0.872-4.079s0.291-2.909 0.872-4.079c0.588-1.169 1.422-2.079 2.501-2.729 1.086-0.65 2.377-0.976 3.871-0.976s2.781 0.325 3.861 0.976c1.086 0.65 1.92 1.56 2.501 2.729 0.588 1.169 0.882 2.529 0.882 4.079s-0.294 2.909-0.882 4.079c-0.581 1.169-1.415 2.079-2.501 2.73-1.079 0.65-2.366 0.976-3.861 0.976zM22.603 21.871c0.948 0.014 1.737-0.19 2.366-0.612s1.1-1.021 1.411-1.795c0.318-0.775 0.477-1.681 0.477-2.719s-0.159-1.937-0.477-2.698c-0.311-0.761-0.782-1.353-1.411-1.775s-1.418-0.64-2.366-0.654c-0.948-0.014-1.737 0.19-2.366 0.612s-1.104 1.021-1.422 1.795c-0.311 0.775-0.467 1.681-0.467 2.719s0.156 1.937 0.467 2.698c0.318 0.761 0.792 1.353 1.422 1.775s1.418 0.64 2.366 0.654zM34.425 24.216l-4.38-14.945h2.968l2.802 10.275 2.802-10.254 2.968-0.021 2.802 10.275 2.802-10.275h2.968l-4.38 14.945h-2.781l-2.896-10.088-2.896 10.088h-2.781zM51.825 24.216v-14.945h2.864l6.497 9.963v-9.963h2.864v14.945h-2.864l-6.497-9.963v9.963h-2.864zM67.154 24.216v-14.945h2.823v12.309h6.435v2.636h-9.257zM84.184 24.528c-1.495 0-2.785-0.325-3.871-0.976-1.079-0.65-1.913-1.56-2.501-2.73-0.581-1.169-0.872-2.529-0.872-4.079s0.291-2.909 0.872-4.079c0.588-1.169 1.422-2.079 2.501-2.729 1.086-0.65 2.377-0.976 3.871-0.976s2.781 0.325 3.861 0.976c1.086 0.65 1.92 1.56 2.501 2.729 0.588 1.169 0.882 2.529 0.882 4.079s-0.294 2.909-0.882 4.079c-0.581 1.169-1.415 2.079-2.501 2.73-1.079 0.65-2.366 0.976-3.861 0.976zM84.184 21.871c0.948 0.014 1.737-0.19 2.366-0.612s1.1-1.021 1.411-1.795c0.318-0.775 0.477-1.681 0.477-2.719s-0.159-1.937-0.477-2.698c-0.311-0.761-0.782-1.353-1.411-1.775s-1.418-0.64-2.366-0.654-1.737 0.19-2.366 0.612c-0.63 0.422-1.104 1.021-1.422 1.795-0.311 0.775-0.467 1.681-0.467 2.719s0.156 1.937 0.467 2.698c0.318 0.761 0.792 1.353 1.422 1.775s1.418 0.64 2.366 0.654zM92.057 24.216l4.567-14.945h4.214l4.567 14.945h-2.906l-4.068-13.181h0.54l-4.006 13.181h-2.906zM94.797 21.103v-2.636h7.888v2.636h-7.888zM107.264 24.216v-14.945h4.836c0.118 0 0.36 0.003 0.727 0.010s0.72 0.031 1.059 0.073c1.204 0.145 2.224 0.564 3.062 1.256s1.474 1.571 1.91 2.636c0.436 1.066 0.654 2.231 0.654 3.497s-0.218 2.432-0.654 3.497c-0.436 1.066-1.072 1.944-1.91 2.636s-1.858 1.11-3.062 1.256c-0.339 0.041-0.692 0.066-1.059 0.073s-0.609 0.010-0.727 0.010h-4.836zM110.128 21.559h1.972c0.187 0 0.439-0.003 0.758-0.010 0.318-0.014 0.605-0.045 0.861-0.093 0.65-0.131 1.18-0.436 1.588-0.913 0.415-0.477 0.72-1.052 0.913-1.723 0.201-0.671 0.301-1.363 0.301-2.076 0-0.747-0.104-1.456-0.311-2.128-0.201-0.671-0.509-1.239-0.924-1.702s-0.938-0.758-1.567-0.882c-0.256-0.055-0.543-0.086-0.861-0.093s-0.571-0.010-0.758-0.010h-1.972v9.631z"></path>
<path fill="#e27979" style="fill: var(--color2, #e27979)" d="M179.027 16c0 7.404-6.002 13.405-13.405 13.405s-13.405-6.002-13.405-13.405c0-7.404 6.002-13.405 13.405-13.405s13.405 6.002 13.405 13.405z"></path>
<path fill="none" stroke="#eff0eb" style="stroke: var(--color1, #eff0eb)" stroke-linejoin="miter" stroke-linecap="butt" stroke-miterlimit="4" stroke-width="2.5946" d="M169.59 17.323l-3.968 4.299-3.968-4.299"></path>
<path fill="none" stroke="#eff0eb" style="stroke: var(--color1, #eff0eb)" stroke-linejoin="miter" stroke-linecap="butt" stroke-miterlimit="4" stroke-width="2.5946" d="M165.622 10.378v11.243"></path>
</symbol>
<symbol id="icon-Arrow_Right_Accordion" viewBox="0 0 20 32">
<path fill="none" stroke="#e27979" style="stroke: var(--color2, #e27979)" stroke-linejoin="miter" stroke-linecap="butt" stroke-miterlimit="4" stroke-width="3.2821" d="M1.231 1.231l15.59 14.769-15.59 14.769"></path>
</symbol>
<symbol id="icon-Arrow_Down_Accordion" viewBox="0 0 53 32">
<path fill="none" stroke="#e27979" style="stroke: var(--color2, #e27979)" stroke-linejoin="miter" stroke-linecap="butt" stroke-miterlimit="4" stroke-width="5.3333" d="M50.667 2.667l-24 25.333-24-25.333"></path>
</symbol>
<symbol id="icon-Burger_Menu" viewBox="0 0 49 32">
<path fill="none" stroke="#e27979" style="stroke: var(--color2, #e27979)" stroke-linejoin="miter" stroke-linecap="round" stroke-miterlimit="4" stroke-width="3.2" d="M2.133 29.817h44.986"></path>
<path fill="none" stroke="#e27979" style="stroke: var(--color2, #e27979)" stroke-linejoin="miter" stroke-linecap="round" stroke-miterlimit="4" stroke-width="3.2" d="M2.133 16.84h44.986"></path>
<path fill="none" stroke="#e27979" style="stroke: var(--color2, #e27979)" stroke-linejoin="miter" stroke-linecap="round" stroke-miterlimit="4" stroke-width="3.2" d="M2.133 2.133h44.986"></path>
</symbol>
<symbol id="icon-Arrow_down" viewBox="0 0 32 32">
<path fill="#e27979" style="fill: var(--color2, #e27979)" d="M32 16c0 8.837-7.163 16-16 16s-16-7.163-16-16c0-8.837 7.163-16 16-16s16 7.163 16 16z"></path>
<path fill="none" stroke="#eff0eb" style="stroke: var(--color1, #eff0eb)" stroke-linejoin="miter" stroke-linecap="butt" stroke-miterlimit="4" stroke-width="2.5946" d="M22.71 13.419l-6.71 7.226-6.71-7.226"></path>
</symbol>
<symbol id="icon-Dandruff" viewBox="0 0 33 32">
<path fill="#fff" style="fill: var(--color3, #fff)" d="M12.058 10.327c0.305-1.251 0.48-2.545 0.931-3.738 1.542-4.116 5.847-6.735 10.225-6.342 4.48 0.407 8.189 3.651 9.091 7.985 0.916 4.422-1.149 8.96-5.091 11.025-3.025 1.585-6.109 1.629-9.222 0.247-0.204-0.087-0.538-0.16-0.713-0.058-0.655 0.349-1.28 0.276-1.818-0.175-0.713-0.611-1.382-1.265-2.007-1.964-0.451-0.495-0.596-1.135-0.218-1.731 0.189-0.291 0.16-0.509 0.029-0.785-0.684-1.382-1.018-2.865-1.018-4.407-0.058-0.015-0.116-0.029-0.175-0.044l-0.015-0.015zM30.72 10.385c0-4.625-3.738-8.378-8.349-8.364-4.625 0-8.378 3.767-8.335 8.378 0.029 4.64 3.738 8.291 8.422 8.276 4.567 0 8.262-3.709 8.276-8.291h-0.015z"></path>
<path fill="#fff" style="fill: var(--color3, #fff)" d="M15.098 20.291c-0.902-0.902-1.745-1.745-2.647-2.647 0 0-0.145 0.116-0.276 0.233-3.52 3.287-7.055 6.575-10.575 9.862-0.96 0.887-0.96 1.702-0.044 2.618 0.276 0.276 0.553 0.567 0.844 0.844 0.858 0.858 1.687 0.858 2.531-0.044 1.658-1.745 3.287-3.491 4.931-5.251 1.615-1.716 3.229-3.447 4.829-5.164 0.175-0.189 0.349-0.393 0.422-0.465l-0.015 0.015z"></path>
<path fill="#fff" style="fill: var(--color3, #fff)" d="M21.018 3.549c-1.731 0.116-3.098 0.887-4.073 2.327-0.189 0.276-0.32 0.785-0.189 1.018s0.64 0.364 0.975 0.335c1.658-0.16 3.084-0.873 4.233-2.065 0.247-0.262 0.495-0.8 0.393-1.062-0.116-0.276-0.655-0.378-1.018-0.538-0.087-0.044-0.204 0-0.305 0l-0.015-0.015z"></path>
</symbol>
<symbol id="icon-Content_Star" viewBox="0 0 33 32">
<path fill="#e27979" style="fill: var(--color2, #e27979)" d="M16.487 2.489c0.288 0 0.58 0.167 0.686 0.498l2.788 8.679c0.096 0.299 0.373 0.498 0.686 0.498l9.116-0.032c0.697 0 0.988 0.896 0.42 1.301l-7.392 5.333c-0.256 0.185-0.359 0.512-0.263 0.807l2.848 8.658c0.167 0.505-0.235 0.946-0.686 0.946-0.142 0-0.288-0.043-0.423-0.142l-7.356-5.383c-0.128-0.092-0.277-0.139-0.423-0.139s-0.299 0.046-0.423 0.139l-7.356 5.383c-0.135 0.1-0.281 0.142-0.423 0.142-0.452 0-0.853-0.441-0.686-0.946l2.848-8.658c0.1-0.299-0.007-0.626-0.263-0.807l-7.392-5.333c-0.565-0.409-0.277-1.301 0.42-1.301l9.116 0.032c0.313 0 0.59-0.203 0.686-0.498l2.788-8.679c0.107-0.334 0.395-0.498 0.686-0.498zM16.487 0c-1.401 0-2.628 0.896-3.054 2.226l-2.389 7.445-7.819-0.028c-1.408 0-2.635 0.892-3.065 2.222s0.043 2.77 1.177 3.588l6.343 4.576-2.443 7.428c-0.327 0.988-0.164 2.041 0.444 2.876 0.604 0.836 1.579 1.337 2.606 1.337 0.683 0 1.337-0.217 1.892-0.622l6.311-4.619 6.311 4.619c0.558 0.409 1.212 0.622 1.892 0.622 1.028 0 2.002-0.498 2.606-1.337 0.608-0.839 0.768-1.888 0.444-2.876l-2.443-7.428 6.343-4.576c1.134-0.818 1.607-2.258 1.177-3.588s-1.657-2.222-3.054-2.222l-7.833 0.028-2.389-7.445c-0.427-1.333-1.657-2.226-3.054-2.226h-0.004z"></path>
</symbol>
<symbol id="icon-Content_Water_Drop" viewBox="0 0 23 32">
<path fill="#e27979" style="fill: var(--color2, #e27979)" d="M11.304 3.944l7.196 12.465c1.503 2.601 1.503 5.708 0 8.309s-4.194 4.156-7.196 4.156c-3.003 0-5.693-1.552-7.196-4.156-1.503-2.601-1.503-5.708 0-8.309l7.196-12.465zM11.304 0c-0.677 0-1.354 0.335-1.741 1.005l-8.034 13.916c-4.346 7.524 1.087 16.93 9.775 16.93s14.117-9.407 9.775-16.93l-8.034-13.916c-0.387-0.67-1.064-1.005-1.741-1.005z"></path>
</symbol>
<symbol id="icon-Content_Truck" viewBox="0 0 55 32">
<path fill="#e27979" style="fill: var(--color2, #e27979)" d="M40.422 0c1.424 0.302 1.734 2.504 1.568 3.717 3.073 0.081 6.242-0.675 8.436 1.99 0.883 1.073 3.569 7.142 3.78 8.503 0.25 1.607 0.306 8.651-0.067 10.082-0.753 2.887-3.372 1.931-4.448 2.694-0.331 0.236-0.38 1.403-0.633 1.938-1.73 3.657-6.956 4.167-9.35 0.928-0.76-1.027-0.753-1.983-1.333-3.010h-13.352c-1.185 6.713-10.398 7.022-11.031 0.014-1.347-0.183-5.173 0.566-5.855-0.855-1.681-3.506 5.099-1.902 6.513-2.282 0.102-0.028 0.886-1.203 1.364-1.558 2.423-1.804 6.256-1.386 7.817 1.287l15.156 0.26c2.268-1.857 3.27-3.049 6.509-2.497 2.493 0.425 2.785 3.239 5.64 2.504v-7.427h-10.711c-0.327 0-1.572-1.435-1.572-1.572v-11.861h-28.142c-0.932 0-0.932-2.855 0-2.855h29.711zM50.564 13.426c-0.879-1.765-2.001-6.857-4.427-6.857h-4.142v6.857h8.57zM18.774 24.053c-3.64 0.802-1.498 6.551 1.765 4.631 2.556-1.502 1.080-5.261-1.765-4.631zM43.636 24.053c-3.815 0.731-1.544 6.639 1.762 4.635 2.409-1.459 0.879-5.141-1.762-4.635z"></path>
<path fill="#e27979" style="fill: var(--color2, #e27979)" d="M0.76 17.758l11.657-0.039c1.16 0.141 1.428 1.924 0.559 2.542-1.298 0.918-9.572-0.053-11.685 0.299-1.428-0.401-1.769-1.931-0.531-2.803z"></path>
<path fill="#e27979" style="fill: var(--color2, #e27979)" d="M6.484 6.344l11.657-0.060c1.456 0.271 1.118 2.581-0.292 2.852-1.417 0.271-9.308 0.222-10.831-0.014-1.829-0.281-1.674-2.444-0.534-2.782v0.004z"></path>
<path fill="#e27979" style="fill: var(--color2, #e27979)" d="M3.211 14.502c-0.636-0.636-0.513-2.416 0.654-2.497l11.418-0.007c1.382 0.257 1.322 2.549-0.292 2.848-1.815-0.253-10.926 0.506-11.78-0.345z"></path>
</symbol>
<symbol id="icon-Content_Money" viewBox="0 0 21 32">
<path fill="#e27979" style="fill: var(--color2, #e27979)" d="M12.77 2.382v2.729c0.572 0.124 1.111 0.296 1.615 0.521 1.084 0.483 1.994 1.182 2.72 2.098 0.729 0.916 1.259 2.027 1.591 3.339l-4.107 0.732c-0.136-0.625-0.391-1.176-0.761-1.65-0.373-0.474-0.833-0.844-1.387-1.114s-1.167-0.412-1.84-0.433c-0.056 0-0.113 0-0.169 0-0.578 0-1.108 0.095-1.585 0.281-0.524 0.204-0.939 0.492-1.247 0.859s-0.462 0.779-0.462 1.239c0 0.51 0.216 0.945 0.646 1.313s1.114 0.681 2.053 0.945l3.727 1.055c1.867 0.539 3.215 1.268 4.041 2.187s1.239 2.136 1.239 3.653c0 1.33-0.338 2.501-1.013 3.505-0.676 1.007-1.615 1.796-2.824 2.361-0.684 0.32-1.431 0.548-2.237 0.687v2.658h-3.991v-2.681c-0.726-0.139-1.404-0.356-2.039-0.655-1.194-0.563-2.166-1.36-2.919-2.391s-1.233-2.252-1.437-3.659l3.961-0.616c0.264 1.156 0.818 2.074 1.665 2.759 0.844 0.684 1.855 1.028 3.028 1.028 1.105 0 2.021-0.258 2.75-0.776s1.093-1.159 1.093-1.923c0-0.519-0.16-0.945-0.477-1.283s-0.815-0.613-1.49-0.83l-5.224-1.615c-3.013-0.93-4.519-2.767-4.519-5.517 0-1.292 0.305-2.412 0.916-3.36s1.476-1.68 2.596-2.193c0.631-0.29 1.33-0.492 2.092-0.616v-2.634h3.991zM12.77 0h-3.991c-1.316 0-2.382 1.067-2.382 2.382v0.797c-0.24 0.089-0.474 0.184-0.699 0.287-1.535 0.702-2.747 1.736-3.606 3.070-0.859 1.336-1.298 2.901-1.298 4.652 0 2.578 1.016 4.681 2.924 6.154l-1.701 0.264c-1.292 0.201-2.181 1.404-1.991 2.699 0.261 1.79 0.892 3.378 1.873 4.72 0.987 1.351 2.276 2.409 3.828 3.141 0.219 0.104 0.441 0.199 0.673 0.287v0.895c0 1.316 1.067 2.382 2.382 2.382h3.991c1.316 0 2.382-1.067 2.382-2.382v-0.83c0.299-0.107 0.587-0.228 0.865-0.359 1.6-0.75 2.874-1.825 3.793-3.194 0.939-1.401 1.416-3.028 1.416-4.833 0-2.116-0.622-3.879-1.852-5.244-0.415-0.462-0.904-0.88-1.467-1.259l1.206-0.216c0.652-0.116 1.227-0.498 1.585-1.055s0.471-1.236 0.308-1.879c-0.415-1.633-1.099-3.058-2.039-4.237-0.966-1.212-2.184-2.151-3.615-2.791-0.065-0.030-0.133-0.059-0.201-0.086v-0.987c0-1.316-1.067-2.382-2.382-2.382l-0.003 0.003zM11.502 11.233l-0.859-0.243c0.287 0.021 0.536 0.083 0.753 0.187 0.036 0.018 0.071 0.036 0.107 0.056zM11.040 20.744c-0.625 0-1.111-0.157-1.529-0.495-0.231-0.187-0.415-0.403-0.557-0.664l3.17 0.981c-0.287 0.119-0.649 0.181-1.084 0.181v-0.003z"></path>
</symbol>
<symbol id="icon-Logo" viewBox="0 0 27 32">
<path fill="#eff0eb" style="fill: var(--color1, #eff0eb)" d="M3.208 15.763h0.085c0.169 0 0.345-0.045 0.48-0.147 0.39-0.293 0.441-0.789 0.192-1.122-0.186-0.248-0.435-0.423-0.678-0.592-0.26-0.18-0.503-0.35-0.678-0.603-0.085-0.118-0.175-0.282-0.26-0.468-0.017 0.242-0.028 0.49-0.028 0.733v1.455c0 0.4 0.316 0.722 0.717 0.744 0.057 0 0.113 0 0.175 0h-0.006z"></path>
<path fill="#eff0eb" style="fill: var(--color1, #eff0eb)" d="M15.211 16.282c0 0.226 0.079 0.457 0.249 0.609 0.294 0.265 0.683 0.282 0.983 0.101 1.678-1.032 2.169-3.794 1.491-5.581-0.147-0.383-0.525-0.834-0.96-1.359-0.503-0.603-1.344-1.612-1.101-1.928 0.073-0.101 0.124-0.101 0.153-0.101 0.249 0 0.695 0.4 0.887 0.569 0.282 0.248 0.706 0.288 1.045 0.023 0.198-0.152 0.294-0.4 0.294-0.654 0-0.496-0.028-1.015-0.051-1.511-0.045-0.879-0.090-1.787 0.011-2.56 0.045-0.333-0.141-0.654-0.452-0.778-0.746-0.299-1.531-0.519-2.35-0.648-0.35-0.056-0.644 0.242-0.604 0.592 0.136 1.043-0.079 2.357-0.288 3.631-0.181 1.088-0.35 2.114-0.322 3.011 0.034 1.054 0.271 2.154 0.503 3.214 0.243 1.116 0.497 2.272 0.508 3.377l0.006-0.006z"></path>
<path fill="#eff0eb" style="fill: var(--color1, #eff0eb)" d="M14.675 26.436c0.412-0.586 0.864-1.488 1.192-2.154 0.158-0.321 0.322-0.648 0.384-0.733 0.367-0.519 0.813-0.958 1.282-1.415 0.621-0.609 1.26-1.24 1.745-2.097 1.807-3.208 3.892-7.081 4.089-8.739 0.040-0.355 0.028-0.851 0.017-1.426-0.011-0.553-0.028-1.268 0.023-1.849-0.322-0.569-0.695-1.111-1.113-1.612-0.328-0.4-0.932-0.423-1.31-0.073-0.068 0.062-0.141 0.13-0.209 0.192-0.469 0.423-0.909 0.823-1.124 1.207-0.345 0.615-0.559 1.393-0.593 2.137-0.011 0.226 0.068 0.434 0.22 0.586 0.153 0.158 0.367 0.248 0.593 0.248 0.339 0 0.621-0.197 0.746-0.513l0.051-0.13c0.237-0.626 0.356-0.885 0.875-0.885 0.051 0 0.102 0 0.158 0.006 0.028 0 0.057 0.034 0.062 0.068 0.209 1.223-0.429 1.849-1.169 2.576-0.384 0.378-0.785 0.767-1.079 1.263-0.316 0.536-0.503 1.128-0.683 1.697-0.209 0.66-0.424 1.336-0.836 1.939-0.254 0.372-0.633 0.71-1.028 1.066-0.367 0.327-0.746 0.665-1.039 1.049-1.864 2.436-2.756 4.781-2.717 7.166 0.006 0.474 0.412 0.834 0.904 0.778 0.198-0.023 0.452-0.197 0.57-0.361l-0.011 0.011z"></path>
<path fill="#eff0eb" style="fill: var(--color1, #eff0eb)" d="M4.406 12.809c0.051-0.276 0.288-0.479 0.571-0.479 0.040 0 0.079 0 0.119 0.011 0.13 0.028 0.226 0.135 0.232 0.259 0.113 2.481 0.582 5.085 3.208 5.61 0.051 0.011 0.107 0.017 0.158 0.017 0.339 0 0.65-0.22 0.763-0.569 0.056-0.186 0.028-0.389-0.045-0.569-0.333-0.778-0.627-1.731-0.915-2.655-0.407-1.314-0.796-2.56-1.293-3.411-0.266-0.451-0.61-0.705-0.943-0.947-0.266-0.197-0.52-0.383-0.729-0.671-0.198-0.276-0.446-0.812-0.65-1.398-0.158-0.457-0.791-0.519-1.034-0.101-0.435 0.744-0.785 1.539-1.039 2.374-0.079 0.265-0.051 0.547 0.062 0.795l1.339 2.926 0.209-1.19h-0.011z"></path>
<path fill="#eff0eb" style="fill: var(--color1, #eff0eb)" d="M21.537 23.521c-0.090 0.242-0.056 0.519 0.090 0.733s0.373 0.338 0.627 0.344c0.294 0 0.593-0.079 0.898-0.209 0.644-1.026 1.124-2.165 1.412-3.371 0.141-0.598-0.441-1.105-1.022-0.908-0.407 0.141-0.83 0.265-1.26 0.389-2.073 0.609-4.225 1.24-5.439 3.93l-0.011 0.023v0.028c-0.090 0.287-0.062 0.53 0.079 0.71 0.096 0.13 0.288 0.282 0.667 0.282 0.537 0 1.26-0.299 1.525-0.445 0.621-0.338 1.051-1.054 1.435-1.686 0.265-0.44 0.633-1.049 0.853-1.049 0.028 0 0.062 0.011 0.102 0.034 0.226 0.13 0.322 0.434 0.22 0.71l-0.181 0.485h0.006z"></path>
<path fill="#eff0eb" style="fill: var(--color1, #eff0eb)" d="M8.461 22.117c0 0 0.051 0 0.073 0 0.203 0 0.384 0.124 0.463 0.31l1.542 3.738c0.124 0.299 0.412 0.496 0.74 0.496 0.068 0 0.13-0.006 0.192-0.023 0.328-0.079 0.57-0.355 0.604-0.688 0.531-4.882-3.79-6.963-7.264-8.637-0.61-0.293-1.248-0.474-1.858-0.643 0 0 0 0-0.006 0-0.316-0.090-0.633 0.147-0.633 0.479v1.297c0 1.184 0.181 2.323 0.52 3.388 0.136 0.068 0.271 0.135 0.412 0.197 0.107 0.045 0.215 0.068 0.333 0.068 0.328 0 0.616-0.192 0.74-0.485 0.164-0.383 0.102-0.778 0.051-1.128-0.079-0.513-0.102-0.789 0.243-1.071h0.028c0.401 0.434 0.616 1.060 0.842 1.72 0.367 1.071 0.785 2.289 2.017 2.667 0.13 0.039 0.237 0.056 0.339 0.056 0.26 0 0.401-0.135 0.463-0.214 0.203-0.265 0.102-0.62-0.006-0.992-0.017-0.068-0.040-0.135-0.057-0.203-0.023-0.096 0.011-0.169 0.034-0.209s0.079-0.102 0.186-0.118v-0.006z"></path>
<path fill="#eff0eb" style="fill: var(--color1, #eff0eb)" d="M5.451 23.814c-0.107-0.271-0.378-0.44-0.672-0.474-0.169-0.023-0.345-0.051-0.514-0.090-0.401-0.085-0.712 0.333-0.508 0.688 0.215 0.383 0.458 0.756 0.712 1.111 0.056-0.017 0.113-0.034 0.175-0.056 0.102-0.028 0.203-0.062 0.305-0.090 0.441-0.141 0.678-0.62 0.497-1.088h0.006z"></path>
<path fill="#eff0eb" style="fill: var(--color1, #eff0eb)" d="M20.905 25.686c-1.322 0.259-2.689 0.53-3.864 1.201-0.779 0.445-1.378 1.139-1.904 1.753l-0.011 0.011c-0.316 0.372 0 0.947 0.486 0.857 2.226-0.406 4.225-1.46 5.79-2.965 0.367-0.355 0.045-0.97-0.452-0.868-0.017 0-0.034 0.006-0.045 0.011z"></path>
<path fill="#eff0eb" style="fill: var(--color1, #eff0eb)" d="M5.366 6.241c0.153 0.851 0.333 1.917 0.909 2.413 0.141 0.124 0.328 0.192 0.514 0.192 0.378 0 0.7-0.254 0.785-0.62l0.7-2.965c0.068-0.282 0.316-0.479 0.61-0.479 0.028 0 0.045 0.011 0.045 0.017-0.028 0.344-0.073 0.648-0.119 0.953-0.514 3.479-1.045 7.070 1.384 10.047 0.153 0.186 0.384 0.299 0.627 0.299 0.26 0 0.508-0.124 0.655-0.338 0.147-0.203 0.384-0.333 0.621-0.333 0.090 0 0.181 0.017 0.26 0.056 0.232 0.107 0.192 0.366-0.215 1.319-0.249 0.592-0.537 1.263-0.548 1.934-0.017 0.727 0.034 1.562 0.537 2.255 0.147 0.203 0.39 0.327 0.644 0.327s0.514-0.13 0.661-0.344c1.045-1.539 1.096-3.828 0.802-5.463-0.186-1.032-1.045-1.736-1.954-2.486-0.887-0.733-1.802-1.488-2.079-2.56-0.107-0.412 0.107-0.834 0.469-0.941 0.040-0.011 0.073-0.017 0.102-0.017 0.192 0 0.373 0.417 0.542 0.823 0.22 0.513 0.469 1.094 0.955 1.466 0.141 0.107 0.311 0.169 0.486 0.169 0.243 0 0.48-0.113 0.633-0.299s0.209-0.423 0.158-0.66c-0.254-1.246-0.796-2.379-1.316-3.473-0.689-1.455-1.344-2.825-1.367-4.403 0-0.169 0.017-0.338 0.051-0.496-2.186 0.53-4.123 1.697-5.603 3.298 0.017 0.096 0.040 0.203 0.057 0.316l-0.006-0.006z"></path>
<path fill="#eff0eb" style="fill: var(--color1, #eff0eb)" d="M11.873 3.36c0.051 0.896 0.113 1.917 0.469 2.599 0.090 0.169 0.232 0.31 0.407 0.372 0.457 0.158 0.898-0.062 1.051-0.468 0.294-0.789 0.13-1.725 0-2.481-0.068-0.4-0.141-0.817-0.096-1.015 0-0.017 0.017-0.034 0.023-0.051-0.045 0-0.090 0-0.141 0-0.339 0-0.678 0.017-1.011 0.045-0.429 0.039-0.746 0.417-0.717 0.846 0 0.056 0.006 0.107 0.011 0.158l0.006-0.006z"></path>
<path fill="#eff0eb" style="fill: var(--color1, #eff0eb)" d="M11.585 29.44c-0.655-0.49-1.017-1.060-1.367-1.612-0.689-1.099-1.344-2.137-3.903-2.199-0.271 0-0.548 0.045-0.836 0.096-0.136 0.023-0.277 0.051-0.412 0.068 1.678 1.934 4.005 3.292 6.643 3.732-0.040-0.028-0.085-0.056-0.124-0.090v0.006z"></path>
<path fill="#eff0eb" style="fill: var(--color1, #eff0eb)" d="M24.249 11.14c-0.040 0.242 0.017 0.468 0.169 0.648 0.090 0.107 0.209 0.18 0.339 0.231-0.085-0.592-0.209-1.173-0.378-1.736-0.034 0.288-0.079 0.575-0.13 0.857z"></path>
<path fill="#eff0eb" style="fill: var(--color1, #eff0eb)" d="M19.318 5.266c0.153 0.169 0.373 0.271 0.604 0.271 0.175 0 0.345-0.056 0.486-0.163l0.311-0.237c0.090-0.068 0.096-0.209 0.006-0.282-0.474-0.383-0.977-0.733-1.508-1.037-0.011 0.147-0.028 0.316-0.056 0.519l-0.040 0.316c-0.028 0.231 0.045 0.451 0.198 0.62v-0.006z"></path>
<path fill="#eff0eb" style="fill: var(--color1, #eff0eb)" d="M21.057 18.588c-0.028 0.231 0.040 0.468 0.192 0.643s0.378 0.276 0.604 0.276c0.175 0 0.345-0.062 0.486-0.169 0.424-0.333 0.638-0.913 0.83-1.426 0.13-0.355 0.316-0.834 0.48-0.885 0.090-0.028 0.169-0.039 0.243-0.039 0.102 0 0.175 0.028 0.226 0.079 0.073 0.073 0.113 0.209 0.107 0.372 0 0.214 0.073 0.417 0.22 0.569 0.113 0.113 0.254 0.192 0.412 0.226v-2.977c0-0.445-0.508-0.693-0.864-0.423 0 0-0.006 0-0.011 0.006-1.333 1.020-2.717 2.075-2.937 3.749h0.011z"></path>
<path fill="#eff0eb" style="fill: var(--color1, #eff0eb)" d="M13.59 1.353c6.744 0 12.235 5.48 12.235 12.211v4.871c0 6.732-5.49 12.211-12.235 12.211s-12.234-5.48-12.234-12.211v-4.871c0-6.731 5.49-12.211 12.234-12.211zM13.59 0c-7.495 0-13.59 6.083-13.59 13.565v4.871c0 7.481 6.095 13.564 13.59 13.564s13.59-6.083 13.59-13.565v-4.871c0-7.481-6.1-13.565-13.59-13.565z"></path>
</symbol>
</defs>
</svg>
